<svg xmlns="http://www.w3.org/2000/svg" viewBox="0 0 1200 760" role="img" aria-label="Autoturism premium în showroom modern">
<defs><linearGradient id="a" x1="0" y1="0" x2="1" y2="1"><stop stop-color="#061020"/><stop offset=".55" stop-color="#12365f"/><stop offset="1" stop-color="#050911"/></linearGradient><radialGradient id="b" cx="72%" cy="18%" r="70%"><stop stop-color="#f0c76b" stop-opacity=".62"/><stop offset=".48" stop-color="#d5a63b" stop-opacity=".12"/><stop offset="1" stop-color="#000" stop-opacity="0"/></radialGradient></defs><rect width="1200" height="760" fill="url(#a)"/><rect width="1200" height="760" fill="url(#b)"/><path d="M110 180h980v310H110z" fill="#071423" opacity=".75"/><path d="M160 225h880v215H160z" fill="none" stroke="#d5a63b" stroke-width="5" opacity=".42"/><path d="M0 500h1200v260H0z" fill="#07111d"/><path d="M120 590h960M230 530h740" stroke="#fff" opacity=".18"/><ellipse cx="610" cy="620" rx="410" ry="60" fill="#000" opacity=".42"/><path d="M185 475c34-92 104-146 213-162h330c108 17 184 72 230 162h72c44 0 77 32 77 76v34H98v-28c0-48 38-82 87-82z" fill="#0d1119"/><path d="M315 448c49-57 87-85 160-99h214c73 15 118 43 163 99z" fill="#172b44"/><path d="M130 585h970v37H130z" fill="#d5a63b"/><circle cx="310" cy="620" r="78" fill="#02050a"/><circle cx="310" cy="620" r="34" fill="#d5a63b"/><circle cx="880" cy="620" r="78" fill="#02050a"/><circle cx="880" cy="620" r="34" fill="#d5a63b"/><path d="M155 525h260" stroke="#fff4c6" stroke-width="11" opacity=".88"/><path d="M850 525h145" stroke="#fff" stroke-width="8" opacity=".7"/></svg>
