<svg xmlns="http://www.w3.org/2000/svg" viewBox="0 0 1200 760" role="img" aria-label="Consultanță import auto Europa în stil premium">
<defs><linearGradient id="a" x1="0" y1="0" x2="1" y2="1"><stop stop-color="#040b16"/><stop offset=".58" stop-color="#12385f"/><stop offset="1" stop-color="#03070d"/></linearGradient><radialGradient id="b" cx="70%" cy="24%" r="62%"><stop stop-color="#f3cf72" stop-opacity=".48"/><stop offset=".5" stop-color="#d5a63b" stop-opacity=".1"/><stop offset="1" stop-opacity="0"/></radialGradient></defs><rect width="1200" height="760" fill="url(#a)"/><rect width="1200" height="760" fill="url(#b)"/><path d="M0 505h1200v255H0z" fill="#07111d"/><path d="M120 245h950v270H120z" fill="#061321" opacity=".74"/><path d="M190 330c150-72 310-72 480 0s330 72 480 0" fill="none" stroke="#d5a63b" stroke-width="7" opacity=".34"/><path d="M280 272a190 190 0 1 0 1 0M280 272a190 190 0 0 1 0 380M280 272a190 190 0 0 0 0 380M90 462h380" transform="translate(120 -75)" fill="none" stroke="#ffffff" stroke-width="4" opacity=".18"/><ellipse cx="650" cy="620" rx="405" ry="58" fill="#000" opacity=".42"/><path d="M245 475c38-78 100-119 194-132h282c95 13 158 56 198 132h62c40 0 70 29 70 69v30H176v-28c0-40 29-71 69-71z" fill="#10151f"/><path d="M368 449c42-47 78-67 141-79h180c61 12 98 33 138 79z" fill="#1b3a5d"/><path d="M188 574h870v34H188z" fill="#d5a63b"/><circle cx="350" cy="612" r="72" fill="#02050a"/><circle cx="350" cy="612" r="30" fill="#d5a63b"/><circle cx="832" cy="612" r="72" fill="#02050a"/><circle cx="832" cy="612" r="30" fill="#d5a63b"/></svg>
